<?xml version="1.0" encoding="utf-8"?>
<!-- Generator: Adobe Illustrator 21.1.0, SVG Export Plug-In . SVG Version: 6.00 Build 0)  -->
<svg version="1.1" id="Слой_1" xmlns="http://www.w3.org/2000/svg" xmlns:xlink="http://www.w3.org/1999/xlink" x="0px" y="0px"
	 viewBox="0 0 38 38" style="enable-background:new 0 0 38 38;" xml:space="preserve">
<style type="text/css">
	.st0{fill-rule:evenodd;clip-rule:evenodd;fill:#4FD2C2;}
	.st1{fill-rule:evenodd;clip-rule:evenodd;fill:#FFFFFF;}
</style>
<g id="Фигура_70_копия_2">
	<g>
		<circle class="st0" cx="18.9999237" cy="18.9968109" r="18.9998474"/>
	</g>
</g>
<g id="Wallet_копия">
	<g>
		<path class="st1" d="M20.3330078,20.4120483l1.2501831,1.5848389h4.416687v-3.0841064h-4.416687L20.3330078,20.4120483z
			 M23.4403687,19.7111206c0.4338379,0,0.7857056,0.3516235,0.7857056,0.7841187c0,0.4348145-0.3518677,0.786438-0.7857056,0.786438
			c-0.43396,0-0.7857056-0.3516235-0.7857056-0.786438C22.6546631,20.0627441,23.0064087,19.7111206,23.4403687,19.7111206z
			 M18.9163818,20.4952393l2.083374-2.581604l5.0001221,0.0819702c0-1.8319702-0.5-2.9998169-2.0001831-2.9998169h-7.999939
			c-1,0-2,0.9991455-2,2.0006714v6.0001831l-0.999939-0.9997559v-6.0019531c0-0.9991455,0.999939-1.9971313,1.999939-1.9971313
			h7.999939c0.2727051,0,0.5427246,0.0748901,0.795105,0.203186c-0.3425293-0.673645-1.067688-1.2046509-1.795105-1.2046509
			h-7.999939c-0.999939,0-2.000061,1.0014648-2.000061,1.9994507v8.0014648l2.000061,1.998291h1v-0.3266602
			c0.3060303,0.2001953,0.6517334,0.3266602,1,0.3266602h7.999939c1.0001831,0,2.0001831-0.9991455,2.0001831-1.998291h-5.0001221
			L18.9163818,20.4952393z"/>
	</g>
</g>
</svg>
