<?xml version="1.0" encoding="utf-8"?>
<!-- Generator: Adobe Illustrator 21.1.0, SVG Export Plug-In . SVG Version: 6.00 Build 0)  -->
<svg version="1.1" id="Слой_1" xmlns="http://www.w3.org/2000/svg" xmlns:xlink="http://www.w3.org/1999/xlink" x="0px" y="0px"
	 viewBox="0 0 38 38" style="enable-background:new 0 0 38 38;" xml:space="preserve">
<style type="text/css">
	.st0{fill-rule:evenodd;clip-rule:evenodd;fill:#01B9FF;}
	.st1{fill-rule:evenodd;clip-rule:evenodd;fill:#FFFFFF;}
</style>
<g id="Фигура_70">
	<g>
		<circle class="st0" cx="18.9999237" cy="18.9961395" r="18.9998474"/>
	</g>
</g>
<g id="Todo_list_1">
	<g>
		<path class="st1" d="M20.9998779,11.9976807h-1v1.9995117h1V11.9976807z M22.9998169,11.9976807h-1v1.9995117h1V11.9976807z
			 M18.9998779,11.9976807h-1.000061v1.9995117h1.000061V11.9976807z M23.9997559,12.9956665v2.0006104H12.999939v-2.0006104
			l-1.0001221,1.0015259v11.000061l1.0001221,1.0003052h10.9998169l1-1.0003052v-11.000061L23.9997559,12.9956665z
			 M13.9998779,24.9972534h-0.999939v-1.0003662h0.999939V24.9972534z M13.9998779,22.9977417h-0.999939v-1.0003052h0.999939
			V22.9977417z M13.9998779,20.9970703h-0.999939v-1.0014648h0.999939V20.9970703z M13.9998779,18.99646h-0.999939v-0.9991455
			h0.999939V18.99646z M13.9998779,16.9969482h-0.999939v-0.9991455h0.999939V16.9969482z M23.9997559,24.9972534h-8.9998779
			v-1.0003662h8.9998779V24.9972534z M23.9997559,22.9977417h-8.9998779v-1.0003052h8.9998779V22.9977417z M23.9997559,20.9970703
			h-8.9998779v-1.0014648h8.9998779V20.9970703z M23.9997559,18.99646h-8.9998779v-0.9991455h8.9998779V18.99646z
			 M23.9997559,16.9969482h-8.9998779v-0.9991455h8.9998779V16.9969482z M16.9998169,11.9976807h-1v1.9995117h1V11.9976807z
			 M14.9998779,11.9976807h-1v1.9995117h1V11.9976807z"/>
	</g>
</g>
</svg>
