<?xml version="1.0" encoding="utf-8"?>
<!-- Generator: Adobe Illustrator 21.1.0, SVG Export Plug-In . SVG Version: 6.00 Build 0)  -->
<svg version="1.1" id="Слой_1" xmlns="http://www.w3.org/2000/svg" xmlns:xlink="http://www.w3.org/1999/xlink" x="0px" y="0px"
	 viewBox="0 0 20 56" style="enable-background:new 0 0 20 56;" xml:space="preserve">
<style type="text/css">
	.st0{fill:#0245ED;}
	.st1{fill:#EC2C23;}
</style>
<path class="st0" d="M10,0C4.4771729,0,0,4.4771729,0,10c0,8,10,18,10,18s10-10,10-18C20,4.4771729,15.5228271,0,10,0z
	 M2.8571167,10.5C2.8571167,6.3578491,6.0551147,3,10,3s7.1428833,3.3578491,7.1428833,7.5C17.1428833,16.5,10,24,10,24
	S2.8571167,16.5,2.8571167,10.5z"/>
<path class="st0" d="M10,6c-2.2091675,0-4,1.7908325-4,4s1.7908325,4,4,4s4-1.7908325,4-4S12.2091675,6,10,6z M10,12
	c-1.1045532,0-2-0.8954468-2-2s0.8954468-2,2-2s2,0.8954468,2,2S11.1045532,12,10,12z"/>
<path class="st1" d="M10,28C4.4771729,28,0,32.4771729,0,38c0,8,10,18,10,18s10-10,10-18C20,32.4771729,15.5228271,28,10,28z
	 M2.8571167,38.5c0-4.1421509,3.197998-7.5,7.1428833-7.5s7.1428833,3.3578491,7.1428833,7.5C17.1428833,44.5,10,52,10,52
	S2.8571167,44.5,2.8571167,38.5z"/>
<path class="st1" d="M10,34c-2.2091675,0-4,1.7908325-4,4s1.7908325,4,4,4s4-1.7908325,4-4S12.2091675,34,10,34z M10,40
	c-1.1045532,0-2-0.8954468-2-2s0.8954468-2,2-2s2,0.8954468,2,2S11.1045532,40,10,40z"/>
</svg>
