<?xml version="1.0" encoding="utf-8"?>
<!-- Generator: Adobe Illustrator 21.1.0, SVG Export Plug-In . SVG Version: 6.00 Build 0)  -->
<svg version="1.1" id="Слой_1" xmlns="http://www.w3.org/2000/svg" xmlns:xlink="http://www.w3.org/1999/xlink" x="0px" y="0px"
	 viewBox="0 0 20 28" style="enable-background:new 0 0 20 28;" xml:space="preserve">
<style type="text/css">
	.st0{fill:#EC2C23;}
</style>
<path class="st0" d="M10,0C4.4771729,0,0,4.4771729,0,10c0,8,10,18,10,18s10-10,10-18C20,4.4771729,15.5228271,0,10,0z
	 M2.1768422,10.2142859C2.1768422,5.6776443,5.6794114,2,10,2s7.8231583,3.6776443,7.8231583,8.2142859
	C17.8231583,16.7857151,10,25,10,25S2.1768422,16.7857151,2.1768422,10.2142859z"/>
<path class="st0" d="M10,7c-1.6568756,0-3,1.3431244-3,3s1.3431244,3,3,3s3-1.3431244,3-3S11.6568756,7,10,7z M10,12.25
	c-1.2426224,0-2.25-1.0073776-2.25-2.25S8.7573776,7.75,10,7.75s2.25,1.0073776,2.25,2.25S11.2426224,12.25,10,12.25z"/>
</svg>
