<?xml version="1.0" encoding="utf-8"?>
<!-- Generator: Adobe Illustrator 21.1.0, SVG Export Plug-In . SVG Version: 6.00 Build 0)  -->
<svg version="1.1" id="Слой_1" xmlns="http://www.w3.org/2000/svg" xmlns:xlink="http://www.w3.org/1999/xlink" x="0px" y="0px"
	 viewBox="0 0 216 55" style="enable-background:new 0 0 216 55;" xml:space="preserve">
<style type="text/css">
	.st0{fill:#104FED;}
	.st1{fill:#EC3931;}
</style>
<g id="интернет-агентство">
	<path class="st0" d="M23,30.9651947h-6.7232838l-6.2746763-11.572897H6v11.572897H0.1240234V-0.0352941h12.421855
		c2.7696648,0,5.0025225,0.8989909,6.6981001,2.6959412c1.6960487,1.797466,2.5438385,4.1364927,2.5438385,7.0181122
		c0,2.6025867-0.6501904,4.6868219-1.9501038,6.2511587C18.5373306,17.494772,18,17.9651947,16.0892467,18.7883282L23,30.9651947z
		 M11.6546469,14.6054153c1.3615818,0,2.4783239-0.4265366,3.3502264-1.2801018
		C15.8763227,12.4727297,16.3125,11.3395414,16.3125,9.9277077c0-1.412323-0.4361773-2.5445318-1.3076267-3.3980961
		C14.1329708,5.676537,13.0162287,5.25,11.6546469,5.25H6v9.3554153H11.6546469z"/>
	<path class="st0" d="M49,30.9651947H30.027832V-0.0352941H49v6.0004883H36v5.9999995h11v6.000001H36v7h13V30.9651947z"/>
	<path class="st0" d="M74,30.9651947H56.5517578v-31H62v25h12V30.9651947z"/>
	<path class="st0" d="M100,30.9651947H81.027832V-0.0352941H100v6.0004883H87v5.9999995h11v6.000001H87v7h13V30.9651947z"/>
	<path class="st0" d="M120.5,31.1943607h-2.0416641L105.015625-0.0352941h5.8525391l8.5901718,19.9588203l8.1852188-19.9588203
		h5.8525391L120.5,31.1943607z"/>
	<path class="st1" d="M144.2622986-0.0352941h2.1464844l14.1328888,31.2296543h-6.1530304l-9.0312042-19.9588203
		l-8.6054535,19.9588203h-6.1530304L144.2622986-0.0352941z"/>
	<path class="st0" d="M190.7916718,31.1943607h-2.625l-17.75-19.3125l-0.0416718,19.3125h-5.6494141V-0.0352941h2.3577423
		l17.25,18.7088203V-0.0352941h6.4583435V31.1943607z"/>
	<path class="st0" d="M208.7916718,31.1943607H202.75V5.9235277h-7.1666718v-5.9588218L216-0.0348058V5.924016l-7.2083282-0.0004883
		V31.1943607z"/>
</g>
<g id="RELEVANT">
	<path d="M0.9425291,51.625H0v-8.3930664h0.9804251v6.985569l5.1830978-6.985569H7.125V51.625H6.1445746v-7.0898857
		L0.9425291,51.625z"/>
	<path d="M14.1976013,51.625h-0.9790144v-8.3930664h0.9790144v3.6490059h5.1567173v-3.6490059h0.9790154V51.625h-0.9790154
		v-3.9444809h-5.1567173V51.625z"/>
	<path d="M28.7684441,51.625h-0.9589138v-7.5115929h-2.6192627V43.322998H31.40625v0.7904091h-2.6378059V51.625z"/>
	<path d="M40.359623,51.625c-1.3230476,0-2.4084778-0.3875389-3.2568169-1.1626205
		c-0.8488808-0.7750778-1.2730522-1.7740288-1.2730522-2.996376c0-1.1569748,0.4150314-2.1371117,1.2450943-2.9394684
		c0.8295288-0.8023567,1.8681831-1.203537,3.1159668-1.203537c1.3225098,0,2.3649292,0.4011803,3.1261787,1.203537
		c0.7607155,0.8023567,1.1413383,1.7984848,1.1413383,2.9883804v0.2290459h-7.5614319
		c0.0494614,0.8954773,0.3929901,1.64328,1.0295181,2.2434006c0.6359863,0.6005936,1.4719658,0.9006538,2.5079308,0.9006538
		c1.1977882,0,2.1832199-0.3654327,2.9573746-1.0972443l0.5053482,0.5568542
		C42.9611015,51.1993637,41.7821312,51.625,40.359623,51.625z M43.4664497,47.0728188
		c-0.0123634-0.7637901-0.3026733-1.4575043-0.8703842-2.079731s-1.3757362-0.9331055-2.4235306-0.9331055
		c-0.9859695,0-1.7692604,0.3085251-2.3493385,0.9251099c-0.5800781,0.616581-0.8892021,1.3126488-0.9262962,2.0877266H43.4664497z"
		/>
	<path d="M53.8705864,51.6529427c-1.1791992,0-2.4841919-0.0058823-2.4841919-0.0058823v3.5529404h-0.8842773V43.2635231h0.8842773
		c0,0,2.3085938-0.0220985,2.8984375-0.0220985c1.0991211,0,1.9433594,0.2158852,2.6176758,1.0331688
		s1.0117188,1.9177933,1.0117188,3.3020363c0,1.3719101-0.3374023,2.4724159-1.0117188,3.3015251
		C56.2281914,51.7077751,54.9697075,51.6529427,53.8705864,51.6529427z M53.7172661,50.8114967
		c0.8955078,0,1.9699097,0.1237144,2.4796753-0.5686646c0.5102539-0.6918678,0.7651367-1.5806007,0.7651367-2.6662025
		c0-1.0737762-0.2548828-1.9568558-0.7651367-2.6487236c-0.5097656-0.691864-1.1699219-0.8455544-2.0654297-0.8455544
		c-0.5551758,0-2.7555466-0.0028915-2.7555466-0.0028915l0.0104294,1.3496132v5.3885727
		C51.3863945,50.817646,53.1733208,50.8114967,53.7172661,50.8114967z"/>
	<path d="M64.6194763,51.6705322H63.640461v-8.3930664h0.9790154v3.6490059h5.1567154v-3.6490059h0.9790192v8.3930664h-0.9790192
		v-3.9444809h-5.1567154V51.6705322z"/>
	<path d="M81.1776505,51.625c-1.3230515,0-2.4084778-0.3875389-3.2568207-1.1626205
		c-0.8488846-0.7750778-1.273056-1.7740288-1.273056-2.996376c0-1.1569748,0.4150314-2.1371117,1.2451019-2.9394684
		c0.8295212-0.8023567,1.8681793-1.203537,3.1159592-1.203537c1.3225174,0,2.3649368,0.4011803,3.1261826,1.203537
		c0.7607117,0.8023567,1.1413422,1.7984848,1.1413422,2.9883804v0.2290459h-7.5614319
		c0.0494537,0.8954773,0.3929901,1.64328,1.0295105,2.2434006c0.635994,0.6005936,1.4719696,0.9006538,2.5079346,0.9006538
		c1.1977844,0,2.1832199-0.3654327,2.9573746-1.0972443l0.5053482,0.5568542
		C83.7791214,51.1993637,82.6001511,51.625,81.1776505,51.625z M84.2844696,47.0728188
		c-0.0123596-0.7637901-0.3026657-1.4575043-0.8703842-2.079731c-0.5677109-0.6222267-1.3757324-0.9331055-2.4235229-0.9331055
		c-0.9859695,0-1.7692642,0.3085251-2.3493423,0.9251099c-0.5800781,0.616581-0.8891983,1.3126488-0.9262924,2.0877266H84.2844696z"
		/>
	<path d="M93.3621902,51.625h-0.9589081v-7.5115929h-2.6192627V43.322998H96v0.7904091h-2.6378098V51.625z"/>
	<path d="M104.375,47.9583321h-4.7597656v-1.0686836H104.375V47.9583321z"/>
	<path d="M116.2050934,51.625h-0.911911h-2.873642c-0.782074,0-1.4715424-0.2375107-2.0674133-0.7125282
		c-0.5958633-0.4745483-0.8937912-1.1160583-0.8937912-1.924057c0-0.8183479,0.2949066-1.4598579,0.8857422-1.9235916
		c0.5888214-0.4641991,1.281311-0.696064,2.0754623-0.696064c1.1917267,0,2.8981094,0.0308304,2.8981094,0.0308304
		l-0.0244675-0.5058479c0-0.5671997-0.2164078-1.0121193-0.6482086-1.3342857s-0.9753265-0.4830132-1.62957-0.4830132
		c-1.0397415,0-1.921463,0.3875389-2.6451569,1.1626205l-0.5082932-0.5897751
		c0.875679-0.8841934,1.9627304-1.3262901,3.25914-1.3262901c0.9109039,0,1.6527176,0.2130508,2.2254333,0.6386871
		c0.5717087,0.4256363,0.8585663,1.0591507,0.8585663,1.8996048V51.625z M112.7355881,50.9533882
		c1.1091995,0,2.5575943-0.0239754,2.5575943-0.0239754v-3.8352966c0,0-1.4604797-0.0542183-2.5575943-0.0542183
		c-0.6894684,0-1.2470856,0.1857758-1.6738586,0.5568542c-0.4267654,0.3710785-0.6391449,0.8409233-0.6391449,1.408123
		c0,0.5676689,0.2123795,1.0346909,0.6391449,1.4001274C111.4885025,50.7709084,112.0461197,50.9533882,112.7355881,50.9533882z"/>
	<path d="M128.375,43.1875v0.9166679h-4.9583359V51.625H122.375v-8.4375H128.375z"/>
	<path d="M137.7443848,51.557251c-1.3230438,0-2.4084778-0.3875389-3.2568207-1.1626205
		c-0.848877-0.7750778-1.2730408-1.7740288-1.2730408-2.996376c0-1.1569748,0.4150238-2.1371117,1.2450867-2.9394684
		c0.8295288-0.8023567,1.8681793-1.203537,3.1159668-1.203537c1.3225098,0,2.3649292,0.4011803,3.1261902,1.203537
		c0.7607117,0.8023567,1.1413269,1.7984848,1.1413269,2.9883804v0.2290459h-7.5614319
		c0.049469,0.8954773,0.3929901,1.64328,1.0295258,2.2434006c0.6359863,0.6005936,1.4719543,0.9006538,2.5079346,0.9006538
		c1.1977844,0,2.1832123-0.3654327,2.9573669-1.0972443l0.5053558,0.5568542
		C140.345871,51.1316147,139.1669006,51.557251,137.7443848,51.557251z M140.8512115,47.0050697
		c-0.0123596-0.7637901-0.3026733-1.4575043-0.8703766-2.079731c-0.5677185-0.6222267-1.3757324-0.9331055-2.4235382-0.9331055
		c-0.9859619,0-1.7692566,0.3085251-2.3493347,0.9251099c-0.5800781,0.616581-0.8892059,1.3126488-0.9263,2.0877266H140.8512115z"/>
	<path d="M148.6987457,51.6027832h-0.9790192v-8.3930664h0.9790192v3.6490059h5.1567078v-3.6490059h0.9790192v8.3930664h-0.9790192
		v-3.9444809h-5.1567078V51.6027832z"/>
	<path d="M163.067276,51.557251h-0.9589233v-7.5115929H159.48909V43.255249h6.2159882v0.7904091h-2.6378021V51.557251z"/>
	<path d="M174.1825256,51.557251c-1.2905884,0-2.3355713-0.4005432-3.1338501-1.2020988
		c-0.7982941-0.8010826-1.1974335-1.794632-1.1974335-2.9797058c0-1.1855469,0.3991394-2.1762619,1.1974335-2.9721451
		c0.7982788-0.7954063,1.8432617-1.1935844,3.1338501-1.1935844c1.3011932,0,2.3525238,0.4501953,3.1508026,1.3501129
		l-0.6627655,0.5268059c-0.602417-0.7353516-1.447876-1.0241356-2.4674377-1.0241356
		c-1.0206299,0-1.7992706,0.2419662-2.4080505,0.8841591c-0.6077118,0.642189-0.9126282,1.451786-0.9126282,2.4287872
		c0,0.9769974,0.3049164,1.7889595,0.9126282,2.4363518c0.6087799,0.6478653,1.3717957,0.7975769,2.3924255,0.7975769
		c1.0068665,0,1.8679352-0.1988945,2.4830627-0.9455948l0.6627655,0.5268059
		C176.5350494,51.1018524,175.4837189,51.557251,174.1825256,51.557251z"/>
	<path d="M187.067276,51.5117188h-0.9589233v-7.5115929H183.48909v-0.7904091h6.2159882v0.7904091h-2.6378021V51.5117188z"/>
	<path d="M198.8282623,51.557251h-4.3554535v-8.3475342h3.5584412c0.6919861,0,1.2420044,0.1931,1.6510468,0.5788078
		c0.4090271,0.3862038,0.6135559,0.9074249,0.6135559,1.5641708c0,0.4725761-0.1300659,0.8786354-0.3891907,1.2186699
		c-0.2591248,0.3395424-0.5728455,0.5673904-0.9421692,0.6825562c0.7492371-0.0107841,1.4939575,0.3688278,1.7818756,0.7604904
		c0.2879028,0.3916664,0.4318695,0.8180771,0.4318695,1.2787399c0,0.7029076-0.2104797,1.2559013-0.6304321,1.6589813
		C200.1268463,51.3557091,199.5540009,51.557251,198.8282623,51.557251z M198.1091919,46.9411774
		c0.4692993,0,0.8338776-0.1358147,1.0917511-0.4074478c0.2578583-0.2711182,0.3872986-0.6195602,0.3872986-1.0448074
		c0-0.4486465-0.1294403-0.8057327-0.3872986-1.0712585c-0.2578735-0.2655296-0.6224518-0.3987999-1.0917511-0.3987999
		l-2.5052643-0.0144043v2.9223137L198.1091919,46.9411774z M198.7138214,50.6941185
		c0.4716797,0,0.8422241-0.1272964,1.110672-0.3818893c0.2693939-0.2541237,0.4036255-0.6029053,0.4036255-1.0468063
		c0-0.4005394-0.1342316-0.7469864-0.4036255-1.0388794c-0.2684479-0.2923622-0.6389923-0.4383087-1.110672-0.4383087h-3.1098938
		v2.9058838H198.7138214z"/>
	<path d="M210.644516,51.5117188c-1.268219,0-2.2926788-0.3983574-3.0723114-1.1955414
		c-0.7807007-0.7967148-1.170517-1.7848434-1.170517-2.9634552c0-1.179081,0.3898163-2.1643906,1.170517-2.9559288
		c0.7796326-0.7910728,1.8040924-1.1870766,3.0723114-1.1870766c1.280838,0,2.3105469,0.3960037,3.0912323,1.1870766
		c0.7806854,0.7915382,1.1705017,1.7768478,1.1705017,2.9559288c0,1.1786118-0.3898163,2.1667404-1.1705017,2.9634552
		C212.9550629,51.1133614,211.925354,51.5117188,210.644516,51.5117188z M210.644516,50.7418137
		c1.0002899,0,1.7893829-0.3296928,2.3693848-0.9904861c0.578949-0.6603203,0.8678894-1.4598579,0.8678894-2.3986053
		c0-0.9279327-0.2889404-1.7222939-0.8678894-2.3826141c-0.5800018-0.6603241-1.3690948-0.9909554-2.3693848-0.9909554
		c-0.9876862,0-1.7715149,0.3306313-2.3504639,0.9909554c-0.578949,0.6603203-0.8689575,1.4546814-0.8689575,2.3826141
		s0.2900085,1.7246475,0.8689575,2.3906136S209.6568298,50.7418137,210.644516,50.7418137z"/>
</g>
</svg>
