<?xml version="1.0" encoding="utf-8"?>
<!-- Generator: Adobe Illustrator 21.1.0, SVG Export Plug-In . SVG Version: 6.00 Build 0)  -->
<svg version="1.1" id="Слой_1" xmlns="http://www.w3.org/2000/svg" xmlns:xlink="http://www.w3.org/1999/xlink" x="0px" y="0px"
	 viewBox="0 0 23.666666 23.333334" style="enable-background:new 0 0 23.666666 23.333334;" xml:space="preserve">
<style type="text/css">
	.st0{fill-rule:evenodd;clip-rule:evenodd;fill:#FFA642;}
	.st1{fill:none;stroke:#FFA642;stroke-miterlimit:10;}
</style>
<g id="Фигура_36">
	<g>
		<path class="st0" d="M14.6215487,8.1290531c-0.8626099,0.3623657-1.748291,0.5892944-2.5201416,0.6356201v2.5661621h3.2241821
			C15.2805452,10.2627811,15.0304232,9.1971073,14.6215487,8.1290531z M9.8084383,4.9272709
			C8.7412996,5.2005253,7.7871976,5.7458744,6.9923978,6.4705448c0.4087524,0.2969971,0.9312134,0.5916748,1.521729,0.8411255
			C8.8542757,6.4479618,9.3088045,5.608057,9.8084383,4.9272709z M15.3255892,12.0104008h-3.2241821v2.5661621
			c0.7718506,0.045166,1.6575317,0.2732544,2.5201416,0.6379395C15.0304232,14.1239262,15.2805452,13.033289,15.3255892,12.0104008z
			 M8.2868319,7.9009647C7.605679,7.606348,6.9923978,7.290308,6.5156522,6.9481449
			c-1.0442505,1.1583252-1.6796265,2.6802368-1.748291,4.3826904h2.7475586
			C7.5606351,10.3566532,7.8328519,9.1281986,8.2868319,7.9009647z M12.8053255,4.7229252
			c-0.2493286-0.045105-0.4766235-0.0665283-0.7039185-0.0665283v3.4049683
			c0.7497559-0.045166,1.5666504-0.2269287,2.3157349-0.5001831C13.9862337,6.5157108,13.4186068,5.562891,12.8053255,4.7229252z
			 M16.0066795,11.3308353h2.7475586c-0.0679321-1.7024536-0.7040405-3.2243652-1.74823-4.3826904
			c-0.4768677,0.3421631-1.0900259,0.6582031-1.7711782,0.9528198
			C15.6886263,9.1281986,15.9616976,10.3566532,16.0066795,11.3308353z M16.5291405,6.4705448
			c-0.7946768-0.7246704-1.748107-1.2700195-2.8153677-1.5432739c0.4996338,0.6807861,0.9535522,1.5206909,1.2937622,2.3843994
			C15.597928,7.0622196,16.120388,6.7675419,16.5291405,6.4705448z M7.5149198,12.0104008H4.7673612
			c0.0686646,1.7036133,0.7040405,3.2255249,1.748291,4.3838501c0.4767456-0.3397827,1.0900269-0.6593628,1.7711797-0.9552002
			C7.8100858,14.2141972,7.5377469,12.9667606,7.5149198,12.0104008z M13.7137728,18.3925419
			c1.0672607-0.2495117,2.0206909-0.7947998,2.8153677-1.5219116c-0.4315796-0.3183594-0.9534903-0.6118164-1.5437613-0.8624878
			C14.667325,16.8706303,14.2356234,17.6880131,13.7137728,18.3925419z M9.1043978,7.561182
			c0.7490845,0.2732544,1.5667725,0.4550171,2.3158569,0.5001831V4.6563969c-0.2272949,0-0.4539185,0.0214233-0.7040405,0.0665283
			C10.1036043,5.562891,9.535428,6.5157108,9.1043978,7.561182z M12.1014071,15.2810917v3.4049072
			c0.2272949,0,0.4545898-0.0214233,0.7039185-0.067749c0.635437-0.8387451,1.1809082-1.8378906,1.5896606-2.8596191
			C13.6230135,15.4865971,12.8283358,15.3274174,12.1014071,15.2810917z M15.2348299,15.4390507
			c0.6811523,0.2958374,1.2943106,0.6154175,1.7711782,0.9552002c1.0441895-1.1583252,1.6802979-2.6802368,1.74823-4.3838501
			h-2.7475586C15.9839144,12.9667606,15.7115755,14.2141972,15.2348299,15.4390507z M10.7162142,18.6182499
			c0.2501221,0.0463257,0.4767456,0.067749,0.7040405,0.067749v-3.4049072
			c-0.7262573,0.0463257-1.5210571,0.2055054-2.2929077,0.4775391C9.535428,16.7803593,10.0807772,17.7795048,10.7162142,18.6182499
			z M8.1959505,11.3308353h3.2243042V8.7646732C10.6482821,8.7183475,9.762723,8.4914188,8.899991,8.1290531
			C8.4912386,9.1971073,8.2417879,10.2627811,8.1959505,11.3308353z M6.9923978,16.8706303
			c0.7947998,0.7271118,1.7489018,1.2723999,2.8160405,1.5219116c-0.5224609-0.7045288-0.9541626-1.5219116-1.2714844-2.3843994
			C7.9465604,16.2588139,7.4240994,16.5522709,6.9923978,16.8706303z M8.899991,15.2145023
			c0.8627319-0.3646851,1.748291-0.5927734,2.5202637-0.6379395v-2.5661621H8.1959505
			C8.2417879,13.033289,8.4912386,14.1239262,8.899991,15.2145023z"/>
	</g>
</g>
<path class="st1" d="M20.7247849,13.2457743v-2.7921667c0-0.2000141,0.1286297-0.3773432,0.3187599-0.4394436l1.3263187-0.4331989
	c0.2562923-0.0837107,0.3868599-0.3680897,0.2832909-0.6170225l-1.23946-2.9791079
	c-0.1109295-0.2666259-0.4364452-0.3674097-0.678627-0.2101121l-1.0056438,0.6531663
	c-0.1830616,0.1188984-0.4243431,0.0935464-0.5786934-0.0608039l-1.9743328-1.9743328
	c-0.141428-0.1414289-0.1758671-0.35777-0.0853405-0.5361218l0.6103725-1.2025361
	c0.123064-0.2424579,0.0113182-0.5382464-0.2413177-0.6387699L14.480052,0.8295691
	c-0.2661486-0.1058996-0.5635595,0.0532535-0.6231022,0.3334398l-0.2309952,1.086982
	c-0.0453739,0.2135131-0.2339096,0.3661935-0.4521904,0.3661935h-2.7921114c-0.2000151,0-0.3773451-0.1286309-0.4394445-0.3187621
	L9.5537052,1.1079192c-0.0843687-0.2583156-0.3722725-0.388492-0.6219454-0.2812135l-2.923955,1.2563572
	C5.7444739,2.1962101,5.6464996,2.519242,5.8026118,2.7596052l0.5533228,0.8519387
	C6.4748311,3.7946064,6.4494767,4.0358882,6.2951241,4.190237l-1.97438,1.9743352
	C4.1793122,6.3060012,3.9629683,6.340435,3.7846167,6.2499042L2.7496614,5.7245636
	C2.5096178,5.6027179,2.2166467,5.7109342,2.1134479,5.9595647L0.8995255,8.8841944
	C0.788654,9.1513109,0.947511,9.453495,1.2304065,9.5136089L2.1779711,9.714962
	c0.213516,0.045372,0.3661997,0.2339096,0.3661997,0.4521923v2.7921724c0,0.2000103-0.1286247,0.3773375-0.3187497,0.4394398
	L1.151765,13.7494669c-0.2526359,0.0825214-0.3838347,0.3605576-0.2869137,0.6080265l1.1560264,2.9516897
	c0.1067541,0.2725754,0.4367642,0.3785553,0.682261,0.2191029l0.8363934-0.5432453
	c0.1830614-0.1189003,0.4243445-0.0935478,0.578696,0.0608025l1.9743347,1.9743347
	c0.141427,0.141428,0.1758657,0.3577652,0.0853438,0.5361156L5.6456628,20.604948
	c-0.1192632,0.2349777-0.0182881,0.5219612,0.2218366,0.6304874l2.9074068,1.3140411
	c0.2688866,0.1215267,0.5812569-0.0365467,0.6425877-0.3251762l0.2255135-1.0612984
	c0.0453701-0.2135181,0.2339087-0.3662033,0.4521933-0.3662033h2.7921619c0.2000141,0,0.3773432,0.1286297,0.4394436,0.318758
	l0.3952446,1.2101116c0.0818796,0.2506886,0.3565493,0.3821964,0.6031761,0.2887917l3.0069151-1.1388092
	c0.2757435-0.1044331,0.3845654-0.4368382,0.2239647-0.6841202l-0.6430378-0.990097
	c-0.1188908-0.1830597-0.0935383-0.4243355,0.0608101-0.5786839l1.9743347-1.9743366
	c0.1414318-0.1414299,0.3577747-0.1758652,0.5361271-0.0853367l1.2162437,0.6173458
	c0.2374077,0.1205044,0.5272751,0.0160828,0.6332932-0.2281361l1.2861958-2.9627962
	c0.1163788-0.2680798-0.0420952-0.5755329-0.3279629-0.6362801l-1.201128-0.2552433
	C20.8774681,13.6525936,20.7247849,13.464057,20.7247849,13.2457743z"/>
</svg>
