<?xml version="1.0" encoding="utf-8"?>
<!-- Generator: Adobe Illustrator 21.1.0, SVG Export Plug-In . SVG Version: 6.00 Build 0)  -->
<svg version="1.1" id="Слой_1" xmlns="http://www.w3.org/2000/svg" xmlns:xlink="http://www.w3.org/1999/xlink" x="0px" y="0px"
	 viewBox="0 0 21 20" style="enable-background:new 0 0 21 20;" xml:space="preserve">
<style type="text/css">
	.st0{fill:#58D9CD;}
</style>
<polygon class="st0" points="0,19 20,19 20,19 0,19 "/>
<polygon class="st0" points="3,14 5,12 5,17 3,17 "/>
<polygon class="st0" points="6,11 8,9 8,17 6,17 "/>
<polygon class="st0" points="11,11 9,9 9,17 11,17 "/>
<polygon class="st0" points="14,11 12,12 12,17 14,17 "/>
<polygon class="st0" points="17,8 15,10 15,17 17,17 "/>
<polygon class="st0" points="20,5 18,7 18,17 20,17 "/>
<polygon class="st0" points="17,0 17,1 19.5088501,1 12.2670288,8.2418823 8.1715698,4.1464233 8.1589966,4.1589966 
	8.1464233,4.1464233 1.9644775,10.3284302 2.6715698,11.0355225 8.1590576,5.5480347 12.2625732,9.6605225 12.2670288,9.6560669 
	12.274231,9.663269 20,1.9230957 20,4 21,4 21,0 "/>
<polygon class="st0" points="1,19 1,0 0,0 0,20 20,20 20,19 "/>
</svg>
