<?xml version="1.0" encoding="utf-8"?>
<!-- Generator: Adobe Illustrator 21.1.0, SVG Export Plug-In . SVG Version: 6.00 Build 0)  -->
<svg version="1.1" id="Слой_1" xmlns="http://www.w3.org/2000/svg" xmlns:xlink="http://www.w3.org/1999/xlink" x="0px" y="0px"
	 viewBox="0 0 21 20" style="enable-background:new 0 0 21 20;" xml:space="preserve">
<style type="text/css">
	.st0{fill:#8D88FE;}
</style>
<path class="st0" d="M10.5,0.5c-0.7659159,0-1.5067358,0.1004451-2.2201996,0.2716002v5.3106251h-0.010169v4.0395694h0.0386553
	c-0.0009508,0.0275946-0.0082064,0.0533447-0.0082064,0.0811768c0,1.3116741,1.0633259,2.375,2.375,2.375
	s2.375-1.0633259,2.375-2.375s-1.0633268-2.375-2.375-2.375c-0.5684156,0-1.4919872,0.0026169-1.4919872,0.0026169v-1.547473
	c0,0,0.95961-0.0384769,1.4919872-0.0384769c2.1861229,0,3.958333,1.7722101,3.958333,3.958333
	s-1.7722101,3.958334-3.958333,3.958334c-2.137476,0-3.8675227-1.6974573-3.9440012-3.8162594H6.7167468V1.2876822
	C6.4912953,1.3857485,6.2704234,1.4921405,6.0544872,1.6067395v0.9333246H6.0240383v7.5512819h0.0404401
	c-0.0007138,0.03372-0.0099912,0.0650606-0.0099912,0.098959c0,2.5518637,2.0687284,4.6205931,4.6205931,4.6205931
	s4.6205931-2.0687294,4.6205931-4.6205931c0-2.5519238-2.0687294-4.6205931-4.6205931-4.6205931L9.0587406,5.5544872V3.8798077
	l1.6163397,0.0152245c3.4768038,0,6.2952719,2.8184688,6.2952719,6.2952728c0,3.4767437-2.8184681,6.2952719-6.2952719,6.2952719
	s-6.2952728-2.8185282-6.2952728-6.2952719V2.739646C2.3147066,4.4822998,1,7.0863194,1,10c0,5.2466946,4.2533054,9.5,9.5,9.5
	S20,15.2466946,20,10S15.7466946,0.5,10.5,0.5z"/>
</svg>
