<?xml version="1.0" encoding="utf-8"?>
<!-- Generator: Adobe Illustrator 21.1.0, SVG Export Plug-In . SVG Version: 6.00 Build 0)  -->
<svg version="1.1" id="Слой_1" xmlns="http://www.w3.org/2000/svg" xmlns:xlink="http://www.w3.org/1999/xlink" x="0px" y="0px"
	 viewBox="0 0 24.0033302 21.0026817" style="enable-background:new 0 0 24.0033302 21.0026817;" xml:space="preserve">
<style type="text/css">
	.st0{fill-rule:evenodd;clip-rule:evenodd;fill:#01B9FF;}
	.st1{fill:#01B9FF;}
</style>
<g id="browser_копия_2">
	<g>
		<path class="st0" d="M22.9323578-0.0000045H1.0709692c-0.5913696,0-1.0709839,0.4787598-1.0709839,1.0704346V16.912899
			c0,0.5916748,0.4796143,1.0704346,1.0709839,1.0704346h2.9243164v-0.9694214H1.0018774V2.9736283h22.0108032v14.0402842
			h-3.0030518v0.9694214h2.9227295c0.5913696,0,1.0709839-0.4787598,1.0709839-1.0704346V1.07043
			C24.0033417,0.4787552,23.5237274-0.0000045,22.9323578-0.0000045z M1.4991919,1.9994462
			c-0.2957153,0-0.5355225-0.2399902-0.5355225-0.5357666c0-0.2958374,0.2398071-0.5358276,0.5355225-0.5358276
			c0.2957764,0,0.5354613,0.2399902,0.5354613,0.5358276C2.0346532,1.7594559,1.7949682,1.9994462,1.4991919,1.9994462z
			 M3.5432591,1.9994462c-0.2957153,0-0.5355225-0.2399902-0.5355225-0.5357666
			c0-0.2958374,0.2398071-0.5358276,0.5355225-0.5358276s0.5354614,0.2399902,0.5354614,0.5358276
			C4.0787206,1.7594559,3.8389745,1.9994462,3.5432591,1.9994462z M5.5581517,1.9994462
			c-0.2957764,0-0.5354614-0.2399902-0.5354614-0.5357666c0-0.2958374,0.2396851-0.5358276,0.5354614-0.5358276
			c0.2957153,0,0.5354004,0.2399902,0.5354004,0.5358276C6.0935521,1.7594559,5.8538671,1.9994462,5.5581517,1.9994462z
			 M23.0261688,1.992305H6.9883885V0.9872391h16.0377808V1.992305z"/>
	</g>
</g>
<g>
	<path class="st1" d="M7.0004735,14.302681v3.3999996c0,0.1656857,0.1343145,0.3000011,0.3000002,0.3000011h3.4000001
		c0.1656857,0,0.3000002-0.1343155,0.3000002-0.3000011V14.302681c0-0.1656857-0.1343145-0.3000002-0.3000002-0.3000002H7.3004737
		C7.134788,14.0026808,7.0004735,14.1369953,7.0004735,14.302681z M9.7004738,17.0026817H8.3004732
		c-0.1656847,0-0.2999992-0.1343155-0.2999992-0.3000011V15.302681c0-0.1656857,0.1343145-0.3000002,0.2999992-0.3000002h1.4000006
		c0.1656857,0,0.3000002,0.1343145,0.3000002,0.3000002v1.3999996C10.000474,16.8683662,9.8661594,17.0026817,9.7004738,17.0026817z
		"/>
	<path class="st1" d="M12.838007,5.0026808h-1.7132692c-0.079565,0-0.1558714,0.0316072-0.2121325,0.0878682l-7.8242636,7.824264
		c-0.0562608,0.0562611-0.087868,0.1325674-0.087868,0.2121325v1.5757351c0,0.1656857,0.1343148,0.3000002,0.3000002,0.3000002
		h1.4000001c0.1656852,0,0.2999997,0.1343145,0.2999997,0.3000002v5.3999996c0,0.1656857,0.1343145,0.3000011,0.3000002,0.3000011
		h7.4000001c0.1656857,0,0.3000002-0.1343155,0.3000002-0.3000011V16.302681c0-0.1656857,0.1343145-0.2999992,0.2999992-0.2999992
		h1.4000006c0.1656857,0,0.3000002,0.1343136,0.3000002,0.2999992v4.3999996c0,0.1656857,0.1343145,0.3000011,0.2999992,0.3000011
		h3.4000006c0.1656857,0,0.2999992-0.1343155,0.2999992-0.3000011V15.302681c0-0.1656857,0.1343155-0.3000002,0.3000011-0.3000002
		h1.3999996c0.1656857,0,0.2999992-0.1343145,0.2999992-0.3000002v-1.5598602c0-0.0797129-0.031723-0.1561489-0.0881691-0.2124338
		l-7.8624668-7.8401389C12.9936008,5.0341711,12.9174242,5.0026808,12.838007,5.0026808z M18.000473,14.302681v5.3999996
		c0,0.1656857-0.1343136,0.3000011-0.2999992,0.3000011h-1.3999996c-0.1656857,0-0.3000011-0.1343155-0.3000011-0.3000011V15.302681
		c0-0.1656857-0.1343136-0.3000002-0.2999992-0.3000002h-3.4000006c-0.1656847,0-0.2999992,0.1343145-0.2999992,0.3000002v4.3999996
		c0,0.1656857-0.1343145,0.3000011-0.3000002,0.3000011H6.3004737c-0.1656857,0-0.3000002-0.1343155-0.3000002-0.3000011V14.302681
		c0-0.1656857-0.1343145-0.3000002-0.2999997-0.3000002H4.0004735v-0.5227051l7.3894267-7.3894267
		c0.0562611-0.0562611,0.1325674-0.0878682,0.2121325-0.0878682h0.8639593c0.079565,0,0.1558714,0.0316072,0.2121325,0.0878682
		l7.3223486,7.3223491v0.5897827h-1.6999989C18.1347885,14.0026808,18.000473,14.1369953,18.000473,14.302681z"/>
</g>
</svg>
