<?xml version="1.0" encoding="utf-8"?>
<!-- Generator: Adobe Illustrator 21.1.0, SVG Export Plug-In . SVG Version: 6.00 Build 0)  -->
<svg version="1.1" id="Слой_1" xmlns="http://www.w3.org/2000/svg" xmlns:xlink="http://www.w3.org/1999/xlink" x="0px" y="0px"
	 viewBox="0 0 26 26" style="enable-background:new 0 0 26 26;" xml:space="preserve">
<style type="text/css">
	.st0{fill-rule:evenodd;clip-rule:evenodd;fill:#4FD2C2;}
</style>
<g id="check_transparent">
	<g>
		<path class="st0" d="M17.829834,9.0250244c-0.1846313-0.1853638-0.4839478-0.1853638-0.668396,0l-6.0129395,6.013855
			l-2.8601685-2.8833618c-0.1847534-0.1841431-0.4840088-0.1841431-0.6686401,0l-1.0027466,1.0026855
			c-0.1846313,0.1841431-0.1846313,0.4859009,0,0.6688843l3.1872559,3.210083
			c0.0022583,0.0011597,0.0010986,0.0083008,0.0036011,0.0106812l0.6963501,0.6950073l0.1574097,0.1591797l0.0006104-0.0011597
			l0.1483154,0.1484985c0.1845703,0.1853027,0.4838867,0.1853027,0.6685791,0l7.3535156-7.3540039
			c0.1845093-0.1841431,0.1845093-0.4835205,0-0.6676636L17.829834,9.0250244z M13.012146-0.0028687
			c-7.1797485,0-13.0001831,5.8201904-13.0001831,12.9995117c0,7.180481,5.8204346,12.9995117,13.0001831,12.9995117
			c7.1796265,0,13.000061-5.8190308,13.000061-12.9995117C26.012207,5.8173218,20.1917725-0.0028687,13.012146-0.0028687z
			 M13.012146,22.9963379c-5.5228271,0-10-4.4765015-10-9.9996948c0-5.5220337,4.4771729-9.9997559,10-9.9997559
			c5.5227661,0,10,4.4777222,10,9.9997559C23.012146,18.5198364,18.5349121,22.9963379,13.012146,22.9963379z"/>
	</g>
</g>
</svg>
